<?xml version="1.0" standalone="no"?>
<!DOCTYPE svg PUBLIC "-//W3C//DTD SVG 20010904//EN"
 "http://www.w3.org/TR/2001/REC-SVG-20010904/DTD/svg10.dtd">
<svg version="1.0" xmlns="http://www.w3.org/2000/svg"
 width="588.000000pt" height="295.000000pt" viewBox="0 0 588.000000 295.000000"
 preserveAspectRatio="xMidYMid meet">

<g transform="translate(0.000000,295.000000) scale(0.100000,-0.100000)"
fill="#000000" stroke="none">
<path d="M0 1475 l0 -1475 2940 0 2940 0 0 1475 0 1475 -2940 0 -2940 0 0
-1475z m3358 1055 c207 -48 349 -259 311 -463 -31 -174 -164 -303 -338 -329
-36 -6 -71 -12 -76 -13 -6 -2 -38 -92 -70 -201 -70 -235 -86 -260 -160 -252
-34 4 -48 1 -61 -13 -23 -26 -80 -42 -126 -36 -78 10 -92 31 -253 360 -148
304 -149 305 -184 312 -76 14 -122 56 -141 126 -22 80 21 163 104 200 39 17
39 17 40 77 2 77 41 144 108 185 60 38 151 41 214 9 47 -24 101 -81 110 -116
5 -21 10 -23 52 -18 39 4 54 13 92 52 102 105 246 150 378 120z m-1377 -1529
c23 -23 29 -38 29 -71 0 -23 -5 -50 -11 -62 -14 -26 -68 -48 -119 -48 -38 0
-40 -2 -40 -29 0 -23 5 -30 23 -33 18 -2 23 -10 25 -40 l3 -38 -100 0 -101 0
0 34 c0 19 5 38 10 41 6 3 10 50 10 106 0 59 -4 99 -10 99 -5 0 -10 16 -10 35
l0 35 131 0 131 0 29 -29z m1790 0 c23 -23 29 -38 29 -71 0 -23 -5 -50 -11
-62 -14 -26 -68 -48 -119 -48 -38 0 -40 -2 -40 -29 0 -23 5 -30 23 -33 18 -2
23 -10 25 -40 l3 -38 -100 0 -101 0 0 34 c0 19 5 38 10 41 6 3 10 50 10 106 0
59 -4 99 -10 99 -5 0 -10 16 -10 35 l0 35 131 0 131 0 29 -29z m449 -105 c0
-79 4 -137 10 -141 6 -3 10 -22 10 -41 l0 -34 -75 0 -75 0 0 34 c0 19 5 38 10
41 6 3 10 50 10 106 0 59 -4 99 -10 99 -5 0 -10 16 -10 35 l0 35 65 0 65 0 0
-134z m-1472 62 c3 -24 8 -28 33 -28 27 0 29 -3 29 -35 0 -32 -2 -35 -30 -35
-29 0 -30 -1 -30 -50 0 -49 1 -50 31 -50 29 0 30 -2 27 -37 -3 -36 -5 -38 -43
-44 -52 -9 -106 9 -122 41 -7 14 -13 51 -13 83 0 31 -4 57 -10 57 -19 0 -11
65 10 83 11 9 20 24 20 32 0 13 10 15 48 13 43 -3 47 -5 50 -30z m-507 -47
c26 -26 29 -36 29 -90 0 -34 4 -61 10 -61 6 0 10 -18 10 -40 l0 -40 -60 0
c-49 0 -60 3 -60 17 0 14 -2 15 -17 1 -43 -37 -105 -26 -121 21 -21 60 30 111
112 111 28 0 29 1 13 17 -14 15 -24 16 -67 7 l-50 -11 0 43 c0 49 3 50 108 53
58 1 66 -2 93 -28z m316 9 c15 -14 23 -37 27 -77 4 -32 10 -70 15 -85 5 -14 6
-38 4 -52 -5 -25 -8 -26 -74 -26 l-69 0 0 40 c0 22 5 40 11 40 6 0 9 19 7 48
-3 39 -6 47 -23 47 -16 0 -21 -8 -23 -44 -2 -24 2 -49 7 -54 6 -6 11 -26 11
-44 l0 -33 -75 0 -75 0 0 34 c0 19 5 38 10 41 6 3 10 28 10 56 0 27 -4 49 -10
49 -5 0 -10 16 -10 35 l0 35 65 0 c39 0 65 -4 65 -11 0 -5 10 -3 22 5 31 22
80 20 105 -4z m491 -27 l3 -43 -38 0 c-48 0 -63 -14 -63 -57 0 -26 4 -33 20
-33 17 0 20 -7 20 -40 l0 -40 -85 0 -85 0 0 34 c0 19 5 38 10 41 6 3 10 28 10
56 0 27 -4 49 -10 49 -5 0 -10 16 -10 35 l0 35 65 0 c44 0 65 -4 65 -12 0 -8
7 -6 18 5 10 11 29 17 47 15 28 -3 30 -6 33 -45z m983 18 c26 -26 29 -36 29
-90 0 -34 4 -61 10 -61 6 0 10 -18 10 -40 l0 -40 -60 0 c-49 0 -60 3 -60 17 0
15 -2 15 -17 0 -39 -34 -106 -22 -121 21 -21 61 29 112 112 112 28 0 29 1 13
17 -14 15 -24 16 -67 7 l-50 -11 0 43 c0 49 3 50 108 53 58 1 66 -2 93 -28z
m-843 -36 c-1 -30 1 -57 5 -61 14 -15 21 8 19 61 l-2 55 60 0 60 0 0 -35 c0
-19 -3 -35 -8 -35 -4 0 -20 -35 -35 -77 -61 -170 -98 -211 -182 -198 l-45 6 0
46 0 46 40 -6 c22 -3 40 -1 40 3 0 17 -64 175 -72 178 -4 2 -8 19 -8 38 l0 34
65 0 65 0 -2 -55z m-1040 -397 c15 -15 16 -64 2 -73 -8 -5 -7 -11 0 -20 20
-24 8 -69 -21 -79 -51 -18 -59 -6 -59 94 l0 90 33 0 c18 0 38 -5 45 -12z m449
-14 c16 -25 16 -28 0 -55 -12 -22 -14 -36 -7 -55 13 -32 13 -61 1 -48 -5 5
-14 26 -21 47 -15 48 -30 47 -30 -2 0 -22 -4 -43 -10 -46 -6 -4 -10 28 -10 89
l0 96 30 0 c21 0 35 -8 47 -26z m265 11 c0 -5 -5 -11 -11 -13 -6 -2 -11 4 -11
13 0 9 5 15 11 13 6 -2 11 -8 11 -13z m448 5 c0 -5 -4 -10 -10 -10 -14 0 -12
-27 3 -34 10 -5 10 -7 0 -12 -8 -3 -13 -26 -13 -59 0 -30 -4 -57 -10 -60 -6
-4 -10 17 -10 54 0 34 -4 61 -10 61 -7 0 -7 6 -1 18 5 9 12 25 15 35 6 18 36
24 36 7z m-890 -24 c0 -8 6 -17 13 -20 10 -5 10 -7 0 -12 -8 -3 -13 -25 -13
-54 0 -30 5 -50 13 -53 6 -2 9 -7 6 -11 -3 -3 -14 -4 -23 0 -12 5 -16 19 -16
59 0 33 -5 56 -12 59 -10 5 -10 7 0 12 6 3 12 12 12 20 0 8 5 14 10 14 6 0 10
-6 10 -14z m-162 -28 c7 -7 12 -25 12 -40 0 -24 -4 -28 -30 -28 -23 0 -30 -4
-30 -20 0 -22 20 -26 38 -8 6 6 15 8 19 4 9 -8 -24 -36 -41 -36 -36 1 -56 63
-37 113 11 29 47 37 69 15z m102 -3 c16 -19 5 -34 -12 -17 -17 17 -38 15 -38
-3 0 -8 14 -21 30 -30 43 -22 36 -75 -11 -75 -19 0 -45 27 -35 37 4 4 11 1 16
-6 9 -15 40 -8 40 8 0 6 -13 17 -30 26 -31 16 -39 42 -18 63 17 17 43 15 58
-3z m338 3 c7 -7 12 -25 12 -40 0 -24 -4 -28 -30 -28 -23 0 -30 -4 -30 -20 0
-22 20 -26 38 -8 17 17 28 2 12 -17 -15 -18 -41 -20 -58 -3 -16 16 -16 100 0
116 7 7 19 12 28 12 9 0 21 -5 28 -12z m112 -8 c8 -16 8 -20 -4 -20 -8 0 -16
5 -18 12 -8 23 -38 -1 -38 -31 0 -57 20 -78 45 -44 8 10 14 12 19 5 7 -12 -20
-42 -39 -42 -38 0 -60 74 -35 121 14 25 56 25 70 -1z m50 -51 c0 -44 -4 -68
-10 -64 -5 3 -10 35 -10 71 0 36 4 64 10 64 6 0 10 -30 10 -71z m108 59 c6 -6
12 -32 12 -58 0 -50 -18 -77 -45 -66 -11 4 -15 -1 -15 -19 0 -13 -4 -27 -10
-30 -6 -4 -10 27 -10 87 l0 93 28 2 c15 1 33 -3 40 -9z m112 -7 c5 -11 10 -29
10 -40 0 -17 -6 -21 -35 -21 -37 0 -41 -5 -25 -30 8 -13 13 -13 31 -2 27 17
35 10 14 -12 -34 -34 -75 -6 -75 50 0 48 16 74 45 74 14 0 29 -8 35 -19z m95
3 c9 -9 13 -19 10 -22 -3 -3 -11 0 -17 6 -17 17 -38 15 -38 -3 0 -9 11 -21 25
-27 44 -20 41 -78 -5 -78 -20 0 -46 27 -36 37 4 4 11 1 16 -6 9 -15 40 -8 40
8 0 6 -13 17 -30 26 -31 16 -39 42 -18 63 16 16 34 15 53 -4z m239 -25 c12
-51 1 -87 -29 -95 -38 -9 -55 11 -55 65 0 54 14 73 50 69 19 -2 27 -11 34 -39z
m86 34 c0 -1 -9 -12 -20 -23 -14 -14 -20 -33 -20 -66 0 -27 -4 -43 -10 -39 -5
3 -10 34 -10 69 l0 63 30 0 c17 0 30 -2 30 -4z m90 -35 c6 -24 12 -47 14 -53
2 -5 7 11 11 38 7 42 19 66 30 55 8 -7 -37 -163 -50 -177 -20 -20 -29 -8 -14
17 10 16 10 32 0 79 -8 32 -16 64 -18 71 -3 6 0 12 6 12 5 0 15 -19 21 -42z
m148 30 c17 -17 15 -103 -3 -118 -8 -7 -25 -10 -39 -6 -52 13 -46 136 7 136
13 0 28 -5 35 -12z m62 -54 c0 -39 4 -54 14 -54 18 0 26 22 26 76 0 24 5 44
10 44 7 0 10 -25 8 -66 l-3 -67 -33 -3 c-27 -3 -34 0 -42 22 -11 29 -13 97 -4
107 15 15 24 -8 24 -59z"/>
<path d="M3185 2475 c-27 -8 -53 -14 -57 -15 -12 0 -9 -68 4 -112 6 -21 25
-55 42 -74 28 -32 35 -35 66 -29 32 6 38 12 53 55 10 28 39 73 68 104 l51 56
-28 10 c-48 19 -145 21 -199 5z"/>
<path d="M3434 2408 c-41 -29 -82 -85 -95 -128 -10 -34 -9 -39 15 -63 25 -25
30 -26 73 -17 47 11 134 1 173 -20 17 -9 20 -8 20 9 0 40 -42 130 -81 175 -57
64 -69 69 -105 44z"/>
<path d="M3027 2389 l-37 -37 39 -39 c42 -41 67 -108 56 -146 -4 -12 -9 -30
-11 -39 -3 -12 0 -15 13 -13 71 14 70 14 76 52 5 31 2 42 -17 63 -34 35 -65
99 -74 151 l-8 44 -37 -36z"/>
<path d="M3425 2149 c-23 -6 -33 -17 -40 -41 -9 -30 -7 -38 26 -83 35 -48 69
-127 69 -162 0 -26 73 49 104 107 14 27 30 69 35 95 9 46 9 46 -28 64 -44 22
-125 32 -166 20z"/>
<path d="M3125 2069 c-16 -5 -43 -7 -60 -5 -51 9 -75 -21 -75 -90 0 -54 2 -59
40 -96 23 -21 44 -38 49 -38 15 0 92 73 108 103 33 64 33 83 4 111 -15 14 -29
26 -32 25 -2 0 -17 -5 -34 -10z"/>
<path d="M3292 2021 c-16 -4 -28 -19 -36 -42 -18 -53 -52 -103 -92 -138 l-35
-31 28 -12 c15 -6 66 -11 113 -11 104 -1 160 19 160 56 0 41 -27 116 -55 152
-26 35 -39 39 -83 26z"/>
<path d="M2897 2004 c-3 -3 -3 -30 0 -59 5 -45 2 -56 -16 -74 -13 -13 -34 -21
-56 -21 -34 0 -45 8 -78 54 -23 32 -36 11 -30 -52 5 -55 4 -60 -22 -80 -58
-46 -115 -13 -138 78 -13 54 -28 69 -55 52 -10 -7 22 -80 131 -305 128 -260
149 -297 177 -312 64 -33 143 3 156 70 5 28 -7 331 -22 563 -5 78 -9 92 -24
92 -9 0 -19 -3 -23 -6z"/>
<path d="M3001 1778 c1 -29 4 -78 7 -108 l7 -55 26 87 26 87 -28 20 c-16 12
-31 21 -34 21 -3 0 -5 -24 -4 -52z"/>
<path d="M3069 1628 c-23 -73 -43 -152 -45 -175 -13 -143 -14 -133 12 -133 12
0 26 5 31 12 4 7 35 100 69 208 l61 195 -31 12 c-17 6 -36 12 -43 12 -7 1 -30
-55 -54 -131z"/>
<path d="M1840 926 c0 -30 4 -36 21 -36 17 0 20 5 17 32 -2 22 -9 34 -20 36
-15 3 -18 -4 -18 -32z"/>
<path d="M3630 926 c0 -30 4 -36 21 -36 17 0 20 5 17 32 -2 22 -9 34 -20 36
-15 3 -18 -4 -18 -32z"/>
<path d="M2148 782 c-21 -4 -24 -32 -4 -32 8 0 17 7 20 16 8 20 6 21 -16 16z"/>
<path d="M3938 782 c-21 -4 -24 -32 -4 -32 8 0 17 7 20 16 8 20 6 21 -16 16z"/>
<path d="M2090 440 c0 -27 3 -31 23 -28 16 2 22 10 22 28 0 18 -6 26 -22 28
-20 3 -23 -1 -23 -28z"/>
<path d="M2090 355 c0 -32 3 -36 23 -33 17 2 22 10 22 33 0 23 -5 31 -22 33
-20 3 -23 -1 -23 -33z"/>
<path d="M2540 435 c0 -38 22 -48 38 -19 13 24 3 54 -19 54 -15 0 -19 -7 -19
-35z"/>
<path d="M2210 401 c0 -15 6 -21 21 -21 25 0 22 33 -4 38 -12 2 -17 -3 -17
-17z"/>
<path d="M2650 401 c0 -15 6 -21 21 -21 25 0 22 33 -4 38 -12 2 -17 -3 -17
-17z"/>
<path d="M2920 370 c0 -44 3 -51 18 -48 13 3 17 13 17 48 0 35 -4 45 -17 48
-15 3 -18 -4 -18 -48z"/>
<path d="M3026 405 c-9 -24 -8 -25 20 -25 19 0 25 5 22 17 -4 23 -34 28 -42 8z"/>
<path d="M3354 406 c-11 -28 1 -81 18 -84 21 -4 33 35 24 73 -7 27 -33 34 -42
11z"/>
<path d="M3690 370 c0 -44 3 -51 18 -48 13 3 17 13 17 48 0 35 -4 45 -17 48
-15 3 -18 -4 -18 -48z"/>
</g>
</svg>
